<svg xmlns="http://www.w3.org/2000/svg" width="1280" height="640" viewBox="0 0 1280 640" fill="none" role="img" aria-labelledby="title desc">
<title id="title">Jusmanizer. Seu argumento. Sua voz.</title><desc id="desc">Skill de revisão de estilo jurídico. Exemplos, prompts e instalação.</desc>
<defs><pattern id="grid" width="40" height="40" patternUnits="userSpaceOnUse"><path d="M40 0H0V40" stroke="#29424b"/></pattern><linearGradient id="edge" x2="1280" y2="640" gradientUnits="userSpaceOnUse"><stop stop-color="#C6FF5E"/><stop offset=".6" stop-color="#243842"/><stop offset="1" stop-color="#45DFFF"/></linearGradient></defs>
<rect width="1280" height="640" fill="#0b1118"/><rect x="680" width="600" height="640" fill="url(#grid)" opacity=".35"/>
<rect x="24" y="24" width="1232" height="592" rx="22" stroke="url(#edge)" stroke-width="2"/>
<rect x="62" y="65" width="46" height="46" rx="12" fill="#C6FF5E"/><text x="75" y="96" fill="#14210b" font-family="DejaVu Sans,sans-serif" font-size="33" font-weight="bold">j.</text>
<text x="126" y="98" fill="#EEF3F5" font-family="DejaVu Sans,sans-serif" font-size="32" font-weight="bold" letter-spacing="-1">jusmanizer<tspan fill="#C6FF5E">_</tspan></text>
<text x="65" y="248" fill="#EEF3F5" font-family="DejaVu Sans,sans-serif" font-size="66" font-weight="bold" letter-spacing="-2.6">Seu argumento.</text>
<text x="65" y="329" fill="#C6FF5E" font-family="DejaVu Sans,sans-serif" font-size="77" font-weight="bold" letter-spacing="-3">Sua voz.</text>
<text x="68" y="393" fill="#ADBFCC" font-family="DejaVu Sans,sans-serif" font-size="25">Revisão de estilo jurídico</text><text x="68" y="431" fill="#ADBFCC" font-family="DejaVu Sans,sans-serif" font-size="25">para o seu assistente de IA.</text>
<rect x="67" y="478" width="168" height="39" rx="7" fill="#C6FF5E"/><text x="85" y="504" fill="#18240c" font-family="DejaVu Sans,sans-serif" font-size="17" font-weight="bold">32 padrões</text>
<rect x="248" y="478" width="156" height="39" rx="7" fill="#15262e" stroke="#36535e"/><text x="269" y="504" fill="#BFEFFA" font-family="DejaVu Sans,sans-serif" font-size="17">Licença MIT</text>
<text x="68" y="573" fill="#839BAA" font-family="DejaVu Sans Mono,monospace" font-size="15" letter-spacing="1">EXEMPLOS · PROMPTS · INSTALAÇÃO</text>
<g transform="translate(770 122) rotate(3 210 180)"><rect x="-10" y="12" width="418" height="390" rx="12" fill="#22383f" stroke="#40616a"/><rect width="418" height="390" rx="12" fill="#F3F3E9"/><path d="M0 10Q0 0 10 0H408Q418 0 418 10" stroke="#C6FF5E" stroke-width="6"/>
<text x="28" y="43" fill="#64757d" font-family="DejaVu Sans Mono,monospace" font-size="11" letter-spacing="1.3">MINUTA / REVISÃO DE ESTILO</text><path d="M28 62H390" stroke="#C4CCC6"/>
<text x="28" y="112" fill="#9D735F" font-family="DejaVu Serif,serif" font-size="23">Cumpre esclarecer que</text><path d="M28 105H312" stroke="#A75F44" stroke-width="2"/>
<text x="28" y="151" fill="#435059" font-family="DejaVu Serif,serif" font-size="23">a autora pagou o valor.</text>
<circle cx="49" cy="206" r="19" fill="#DCE7C8"/><path d="M49 196V216M42 209L49 216L56 209" stroke="#5B7C46" stroke-width="2"/>
<text x="86" y="211" fill="#65814B" font-family="DejaVu Sans Mono,monospace" font-size="10">O FATO CONTINUA.</text>
<text x="28" y="273" fill="#23343b" font-family="DejaVu Serif,serif" font-size="27" font-weight="bold">A autora pagou</text><text x="28" y="313" fill="#23343b" font-family="DejaVu Serif,serif" font-size="27" font-weight="bold">o valor.</text>
<path d="M28 342H390" stroke="#C4CCC6"/><text x="28" y="366" fill="#64757D" font-family="DejaVu Sans Mono,monospace" font-size="10">EXEMPLO ILUSTRATIVO</text></g>
</svg>
